<?xml version="1.0" encoding="UTF-8"?>
<!DOCTYPE svg PUBLIC "-//W3C//DTD SVG 1.1//EN" "http://www.w3.org/Graphics/SVG/1.1/DTD/svg11.dtd">
<svg xmlns="http://www.w3.org/2000/svg" version="1.1" width="40px" height="40px" style="shape-rendering:geometricPrecision; text-rendering:geometricPrecision; image-rendering:optimizeQuality; fill-rule:evenodd; clip-rule:evenodd" xmlns:xlink="http://www.w3.org/1999/xlink">
<g><path style="opacity:1" fill="#f1ebea" d="M 2.5,6.5 C 13.8333,5.16667 25.1667,5.16667 36.5,6.5C 35.448,6.35055 34.448,6.51722 33.5,7C 28.8377,10.8545 23.8377,14.0212 18.5,16.5C 13.7666,12.1371 8.43322,8.80378 2.5,6.5 Z"/></g>
<g><path style="opacity:1" fill="#dd5645" d="M 2.5,6.5 C 8.43322,8.80378 13.7666,12.1371 18.5,16.5C 20.5,17.1667 22.5,17.8333 24.5,18.5C 23.1119,19.8724 21.4452,20.8724 19.5,21.5C 17.1729,20.1768 14.8396,18.8435 12.5,17.5C 10.8577,16.197 9.19107,14.8637 7.5,13.5C 7.44001,12.9569 7.10667,12.6236 6.5,12.5C 5.50331,19.1335 5.16998,25.8002 5.5,32.5C 4.5,32.5 3.5,32.5 2.5,32.5C 1.16667,23.8333 1.16667,15.1667 2.5,6.5 Z"/></g>
<g><path style="opacity:1" fill="#dc604f" d="M 36.5,6.5 C 37.8333,15.1667 37.8333,23.8333 36.5,32.5C 36.8303,25.4684 36.497,18.4684 35.5,11.5C 34.8165,11.8627 34.1499,12.1961 33.5,12.5C 32.8333,12.5 32.5,12.8333 32.5,13.5C 29.8333,15.1667 27.1667,16.8333 24.5,18.5C 22.5,17.8333 20.5,17.1667 18.5,16.5C 23.8377,14.0212 28.8377,10.8545 33.5,7C 34.448,6.51722 35.448,6.35055 36.5,6.5 Z"/></g>
<g><path style="opacity:1" fill="#e0dfdf" d="M 7.5,13.5 C 9.19107,14.8637 10.8577,16.197 12.5,17.5C 12.9613,20.3033 14.2947,22.6366 16.5,24.5C 13.681,27.075 10.681,29.4083 7.5,31.5C 7.16667,31.5 6.83333,31.5 6.5,31.5C 6.17711,25.31 6.51045,19.31 7.5,13.5 Z"/></g>
<g><path style="opacity:1" fill="#c67367" d="M 33.5,12.5 C 33.5,19.1667 33.5,25.8333 33.5,32.5C 34.5,32.5 35.5,32.5 36.5,32.5C 35.4324,33.4345 34.099,33.7678 32.5,33.5C 32.5,30.8333 32.5,28.1667 32.5,25.5C 32.5,21.5 32.5,17.5 32.5,13.5C 32.5,12.8333 32.8333,12.5 33.5,12.5 Z"/></g>
<g><path style="opacity:1" fill="#b83925" d="M 36.5,32.5 C 35.5,32.5 34.5,32.5 33.5,32.5C 33.5,25.8333 33.5,19.1667 33.5,12.5C 34.1499,12.1961 34.8165,11.8627 35.5,11.5C 36.497,18.4684 36.8303,25.4684 36.5,32.5 Z"/></g>
<g><path style="opacity:1" fill="#dbd7d6" d="M 32.5,13.5 C 32.5,17.5 32.5,21.5 32.5,25.5C 27.8333,25.5 23.1667,25.5 18.5,25.5C 17.8333,25.1667 17.1667,24.8333 16.5,24.5C 14.2947,22.6366 12.9613,20.3033 12.5,17.5C 14.8396,18.8435 17.1729,20.1768 19.5,21.5C 21.4452,20.8724 23.1119,19.8724 24.5,18.5C 27.1667,16.8333 29.8333,15.1667 32.5,13.5 Z"/></g>
<g><path style="opacity:1" fill="#d97e73" d="M 7.5,13.5 C 6.51045,19.31 6.17711,25.31 6.5,31.5C 6.5,32.1667 6.5,32.8333 6.5,33.5C 4.90097,33.7678 3.56764,33.4345 2.5,32.5C 3.5,32.5 4.5,32.5 5.5,32.5C 5.16998,25.8002 5.50331,19.1335 6.5,12.5C 7.10667,12.6236 7.44001,12.9569 7.5,13.5 Z"/></g>
<g><path style="opacity:1" fill="#ededed" d="M 16.5,24.5 C 17.1667,24.8333 17.8333,25.1667 18.5,25.5C 20.2941,27.7966 22.2941,29.9633 24.5,32C 18.6513,32.8184 12.9846,32.6517 7.5,31.5C 10.681,29.4083 13.681,27.075 16.5,24.5 Z"/></g>
<g><path style="opacity:0.888" fill="#e4e4e4" d="M 18.5,25.5 C 23.1667,25.5 27.8333,25.5 32.5,25.5C 32.5,28.1667 32.5,30.8333 32.5,33.5C 23.8333,33.5 15.1667,33.5 6.5,33.5C 6.5,32.8333 6.5,32.1667 6.5,31.5C 6.83333,31.5 7.16667,31.5 7.5,31.5C 12.9846,32.6517 18.6513,32.8184 24.5,32C 22.2941,29.9633 20.2941,27.7966 18.5,25.5 Z"/></g>
</svg>
