<?xml version="1.0" encoding="UTF-8"?>
<!DOCTYPE svg PUBLIC "-//W3C//DTD SVG 1.1//EN" "http://www.w3.org/Graphics/SVG/1.1/DTD/svg11.dtd">
<svg xmlns="http://www.w3.org/2000/svg" version="1.1" width="460px" height="446px" style="shape-rendering:geometricPrecision; text-rendering:geometricPrecision; image-rendering:optimizeQuality; fill-rule:evenodd; clip-rule:evenodd" xmlns:xlink="http://www.w3.org/1999/xlink">
<g><path style="opacity:0.941" fill="#010101" d="M 141.5,12.5 C 146.438,13.3924 151.438,13.7257 156.5,13.5C 156.5,30.1667 156.5,46.8333 156.5,63.5C 235.167,63.5 313.833,63.5 392.5,63.5C 392.666,70.8409 392.5,78.1742 392,85.5C 352.254,127.409 313.087,169.742 274.5,212.5C 300.698,228.429 326.032,245.596 350.5,264C 383.72,286.293 417.053,308.626 450.5,331C 451.191,332.067 451.691,333.234 452,334.5C 452.5,349.163 452.667,363.83 452.5,378.5C 353.833,378.5 255.167,378.5 156.5,378.5C 156.986,397.653 156.486,416.653 155,435.5C 151,434.167 147,434.167 143,435.5C 142.25,434.874 141.416,434.374 140.5,434C 141.659,415.907 141.825,397.74 141,379.5C 136.599,378.533 132.099,378.2 127.5,378.5C 127.5,397.167 127.5,415.833 127.5,434.5C 122.455,434.609 117.622,434.609 113,434.5C 112.5,415.836 112.333,397.17 112.5,378.5C 78.8317,378.667 45.165,378.5 11.5,378C 10.3517,369.912 10.1851,361.746 11,353.5C 11.414,353.043 11.914,352.709 12.5,352.5C 45.1473,353.445 77.4806,353.778 109.5,353.5C 110.167,353.167 110.833,352.833 111.5,352.5C 112.499,341.854 112.832,331.187 112.5,320.5C 78.8333,320.5 45.1667,320.5 11.5,320.5C 11.1858,312.913 11.5192,305.413 12.5,298C 45.8317,297.5 79.165,297.333 112.5,297.5C 112.5,247.5 112.5,197.5 112.5,147.5C 81.1667,147.5 49.8333,147.5 18.5,147.5C 18.5,139.833 18.5,132.167 18.5,124.5C 49.8333,124.5 81.1667,124.5 112.5,124.5C 112.5,111.833 112.5,99.1667 112.5,86.5C 81.1667,86.5 49.8333,86.5 18.5,86.5C 18.1865,78.6597 18.1865,71.1597 18.5,64C 49.8316,63.5 81.1649,63.3334 112.5,63.5C 112.5,46.8333 112.5,30.1667 112.5,13.5C 117.5,13.5 122.5,13.5 127.5,13.5C 127.5,30.1667 127.5,46.8333 127.5,63.5C 132.167,63.5 136.833,63.5 141.5,63.5C 141.5,46.5 141.5,29.5 141.5,12.5 Z M 127.5,86.5 C 132.167,86.5 136.833,86.5 141.5,86.5C 141.5,99.1667 141.5,111.833 141.5,124.5C 136.833,124.5 132.167,124.5 127.5,124.5C 127.5,111.833 127.5,99.1667 127.5,86.5 Z M 328.5,104.5 C 323.538,108.466 319.205,113.133 315.5,118.5C 287.403,150.437 259.07,182.27 230.5,214C 242.903,223.715 255.903,232.715 269.5,241C 275.113,246.126 281.113,250.626 287.5,254.5C 292.278,258.729 297.278,262.729 302.5,266.5C 328.857,285.346 354.857,304.679 380.5,324.5C 384.167,327.167 387.833,329.833 391.5,332.5C 400.167,339.167 408.833,345.833 417.5,352.5C 330.998,353.484 244.165,353.817 157,353.5C 156.5,342.505 156.333,331.505 156.5,320.5C 210.167,320.5 263.833,320.5 317.5,320.5C 319.956,315.02 323.289,310.02 327.5,305.5C 328.833,303.833 328.833,302.167 327.5,300.5C 283.799,271.116 240.132,241.783 196.5,212.5C 202.14,207.527 207.473,202.194 212.5,196.5C 231.465,181.373 250.298,166.039 269,150.5C 269.419,149.328 270.085,148.328 271,147.5C 271.5,139.841 271.666,132.174 271.5,124.5C 233.167,124.5 194.833,124.5 156.5,124.5C 156.5,111.833 156.5,99.1667 156.5,86.5C 218.834,86.3333 281.168,86.5 343.5,87C 337.577,92.0861 332.577,97.9194 328.5,104.5 Z M 127.5,147.5 C 132.167,147.5 136.833,147.5 141.5,147.5C 141.5,197.5 141.5,247.5 141.5,297.5C 136.833,297.5 132.167,297.5 127.5,297.5C 127.5,247.5 127.5,197.5 127.5,147.5 Z M 232.5,258.5 C 234.822,260.664 237.489,262.331 240.5,263.5C 248.81,269.99 257.476,275.99 266.5,281.5C 271.954,285.733 277.62,289.733 283.5,293.5C 285.1,294.644 286.767,295.811 288.5,297C 244.501,297.5 200.501,297.667 156.5,297.5C 156.5,247.5 156.5,197.5 156.5,147.5C 185.169,147.333 213.835,147.5 242.5,148C 219.035,168.463 195.868,189.296 173,210.5C 171.439,213.659 171.272,216.826 172.5,220C 192.675,232.698 212.675,245.531 232.5,258.5 Z M 127.5,320.5 C 132.167,320.5 136.833,320.5 141.5,320.5C 141.5,331.167 141.5,341.833 141.5,352.5C 136.676,352.905 132.01,352.905 127.5,352.5C 127.5,341.833 127.5,331.167 127.5,320.5 Z"/></g>
<g><path style="opacity:0.75" fill="#090909" d="M 328.5,104.5 C 328.956,107.069 327.956,109.403 325.5,111.5C 326.274,112.711 327.107,112.711 328,111.5C 328.667,112.833 328.667,114.167 328,115.5C 325.834,115.166 323.501,115.166 321,115.5C 320.493,116.996 320.993,118.163 322.5,119C 321.551,119.617 320.718,119.451 320,118.5C 319.667,119.167 319.333,119.833 319,120.5C 317.698,119.915 316.531,119.249 315.5,118.5C 319.205,113.133 323.538,108.466 328.5,104.5 Z"/></g>
<g><path style="opacity:0.994" fill="#0b0b0b" d="M 254.5,152.5 C 255.882,153.801 257.548,154.634 259.5,155C 255.962,157.448 252.796,159.615 250,161.5C 249.544,160.256 250.044,159.423 251.5,159C 250.269,157.817 250.269,156.651 251.5,155.5C 253.895,156.523 254.895,155.523 254.5,152.5 Z"/></g>
<g><path style="opacity:0.532" fill="#090909" d="M 212.5,196.5 C 207.473,202.194 202.14,207.527 196.5,212.5C 195.027,211.928 193.693,211.095 192.5,210C 193.449,209.383 194.282,209.549 195,210.5C 195.833,209.667 196.667,208.833 197.5,208C 196.262,208.077 195.262,207.911 194.5,207.5C 197.522,207.072 200.022,205.739 202,203.5C 202.617,202.551 202.451,201.718 201.5,201C 203.776,199.97 204.443,198.47 203.5,196.5C 206.728,194.548 209.728,194.548 212.5,196.5 Z"/></g>
<g><path style="opacity:0.102" fill="#030403" d="M 295.5,222.5 C 296.833,223.167 296.833,223.167 295.5,222.5 Z"/></g>
<g><path style="opacity:0.996" fill="#0c0c0c" d="M 261.5,232.5 C 264.798,233.343 268.131,233.509 271.5,233C 271.167,233.333 270.833,233.667 270.5,234C 271.416,234.374 272.25,234.874 273,235.5C 272.852,236.825 273.018,237.992 273.5,239C 271.82,239.034 270.32,239.201 269,239.5C 268.833,239.167 268.667,238.833 268.5,238.5C 269.376,237.749 270.376,237.249 271.5,237C 267.983,235.486 264.649,233.986 261.5,232.5 Z"/></g>
<g><path style="opacity:0.996" fill="#080808" d="M 302.5,266.5 C 297.278,262.729 292.278,258.729 287.5,254.5C 287.883,250.062 289.716,249.395 293,252.5C 293.945,252.095 294.612,251.428 295,250.5C 295.093,253.007 295.926,255.174 297.5,257C 297.167,257.333 296.833,257.667 296.5,258C 298.075,257.621 299.575,257.788 301,258.5C 301.423,257.044 302.256,256.544 303.5,257C 302.549,257.718 302.383,258.551 303,259.5C 303.893,258.289 304.726,258.289 305.5,259.5C 304.833,260.167 304.167,260.833 303.5,261.5C 304.5,262.333 305.5,263.167 306.5,264C 305.451,264.492 304.451,264.326 303.5,263.5C 302.614,264.325 302.281,265.325 302.5,266.5 Z"/></g>
<g><path style="opacity:0.682" fill="#090909" d="M 240.5,263.5 C 237.489,262.331 234.822,260.664 232.5,258.5C 232.64,256.876 231.973,255.71 230.5,255C 231.308,254.692 231.975,254.192 232.5,253.5C 228.309,250.226 228.642,249.226 233.5,250.5C 234.084,255.609 236.751,257.776 241.5,257C 242.337,258.011 242.67,259.178 242.5,260.5C 239.203,260.329 238.869,260.995 241.5,262.5C 241.376,263.107 241.043,263.44 240.5,263.5 Z"/></g>
<g><path style="opacity:0.924" fill="#080808" d="M 283.5,293.5 C 277.62,289.733 271.954,285.733 266.5,281.5C 268.746,281.064 270.913,280.397 273,279.5C 274.44,281.046 276.273,281.879 278.5,282C 280.738,284.104 281.738,286.438 281.5,289C 282.5,289.333 283.5,289.667 284.5,290C 283.663,291.011 283.33,292.178 283.5,293.5 Z"/></g>
<g><path style="opacity:0.679" fill="#080808" d="M 391.5,332.5 C 387.833,329.833 384.167,327.167 380.5,324.5C 380.193,322.554 380.193,320.887 380.5,319.5C 381.799,320.09 382.632,321.09 383,322.5C 384.343,321.786 385.676,322.12 387,323.5C 388.067,321.717 389.567,321.217 391.5,322C 388.015,322.493 387.515,323.993 390,326.5C 392.67,329.25 395.836,331.083 399.5,332C 398.874,332.75 398.374,333.584 398,334.5C 396.551,333.386 395.217,332.386 394,331.5C 393.329,332.252 392.496,332.586 391.5,332.5 Z"/></g>
</svg>
